<mxfile host="app.diagrams.net" modified="2024-04-06T08:04:11.691Z" agent="Mozilla/5.0 (Windows NT 10.0; Win64; x64) AppleWebKit/537.36 (KHTML, like Gecko) Chrome/122.0.0.0 Safari/537.36 OPR/108.0.0.0" etag="FKHhDY61Rar03WkD5L3g" version="24.2.2" type="github">
  <diagram name="Page-1" id="ctk5OYpXzcZAZ0oy4wzx">
    <mxGraphModel dx="996" dy="559" grid="1" gridSize="10" guides="1" tooltips="1" connect="1" arrows="1" fold="1" page="1" pageScale="1" pageWidth="850" pageHeight="1100" math="0" shadow="0">
      <root>
        <mxCell id="0" />
        <mxCell id="1" parent="0" />
        <mxCell id="IuE0m9xAkgwqCJRRVcRy-20" value="" style="rounded=0;whiteSpace=wrap;html=1;fillColor=#ffe6cc;strokeColor=#d79b00;" vertex="1" parent="1">
          <mxGeometry x="215" y="30" width="420" height="520" as="geometry" />
        </mxCell>
        <mxCell id="IuE0m9xAkgwqCJRRVcRy-12" style="edgeStyle=none;rounded=0;orthogonalLoop=1;jettySize=auto;html=1;exitX=1;exitY=0.3333333333333333;exitDx=0;exitDy=0;exitPerimeter=0;entryX=0;entryY=0.5;entryDx=0;entryDy=0;endArrow=none;endFill=0;" edge="1" parent="1" source="IuE0m9xAkgwqCJRRVcRy-1" target="IuE0m9xAkgwqCJRRVcRy-3">
          <mxGeometry relative="1" as="geometry" />
        </mxCell>
        <mxCell id="IuE0m9xAkgwqCJRRVcRy-13" style="edgeStyle=none;rounded=0;orthogonalLoop=1;jettySize=auto;html=1;exitX=1;exitY=0.3333333333333333;exitDx=0;exitDy=0;exitPerimeter=0;endArrow=none;endFill=0;" edge="1" parent="1" source="IuE0m9xAkgwqCJRRVcRy-1" target="IuE0m9xAkgwqCJRRVcRy-4">
          <mxGeometry relative="1" as="geometry" />
        </mxCell>
        <mxCell id="IuE0m9xAkgwqCJRRVcRy-14" style="edgeStyle=none;rounded=0;orthogonalLoop=1;jettySize=auto;html=1;exitX=1;exitY=0.3333333333333333;exitDx=0;exitDy=0;exitPerimeter=0;entryX=0;entryY=0.5;entryDx=0;entryDy=0;endArrow=none;endFill=0;" edge="1" parent="1" source="IuE0m9xAkgwqCJRRVcRy-1" target="IuE0m9xAkgwqCJRRVcRy-5">
          <mxGeometry relative="1" as="geometry" />
        </mxCell>
        <mxCell id="IuE0m9xAkgwqCJRRVcRy-15" style="edgeStyle=none;rounded=0;orthogonalLoop=1;jettySize=auto;html=1;exitX=1;exitY=0.3333333333333333;exitDx=0;exitDy=0;exitPerimeter=0;entryX=0;entryY=0;entryDx=0;entryDy=0;endArrow=none;endFill=0;" edge="1" parent="1" source="IuE0m9xAkgwqCJRRVcRy-1" target="IuE0m9xAkgwqCJRRVcRy-6">
          <mxGeometry relative="1" as="geometry" />
        </mxCell>
        <mxCell id="IuE0m9xAkgwqCJRRVcRy-1" value="Cashier" style="shape=umlActor;verticalLabelPosition=bottom;verticalAlign=top;html=1;outlineConnect=0;" vertex="1" parent="1">
          <mxGeometry x="140" y="300" width="30" height="60" as="geometry" />
        </mxCell>
        <mxCell id="IuE0m9xAkgwqCJRRVcRy-16" style="edgeStyle=none;rounded=0;orthogonalLoop=1;jettySize=auto;html=1;exitX=0;exitY=0.3333333333333333;exitDx=0;exitDy=0;exitPerimeter=0;endArrow=none;endFill=0;" edge="1" parent="1" source="IuE0m9xAkgwqCJRRVcRy-2" target="IuE0m9xAkgwqCJRRVcRy-9">
          <mxGeometry relative="1" as="geometry" />
        </mxCell>
        <mxCell id="IuE0m9xAkgwqCJRRVcRy-18" style="edgeStyle=none;rounded=0;orthogonalLoop=1;jettySize=auto;html=1;exitX=0;exitY=0.3333333333333333;exitDx=0;exitDy=0;exitPerimeter=0;entryX=1;entryY=0;entryDx=0;entryDy=0;endArrow=none;endFill=0;" edge="1" parent="1" source="IuE0m9xAkgwqCJRRVcRy-2" target="IuE0m9xAkgwqCJRRVcRy-7">
          <mxGeometry relative="1" as="geometry" />
        </mxCell>
        <mxCell id="IuE0m9xAkgwqCJRRVcRy-2" value="POS System" style="shape=umlActor;verticalLabelPosition=bottom;verticalAlign=top;html=1;outlineConnect=0;" vertex="1" parent="1">
          <mxGeometry x="690" y="290" width="30" height="60" as="geometry" />
        </mxCell>
        <mxCell id="IuE0m9xAkgwqCJRRVcRy-3" value="Initiate Sales Transaction" style="ellipse;whiteSpace=wrap;html=1;" vertex="1" parent="1">
          <mxGeometry x="260" y="90" width="120" height="80" as="geometry" />
        </mxCell>
        <mxCell id="IuE0m9xAkgwqCJRRVcRy-4" value="Scan items/Manually input products" style="ellipse;whiteSpace=wrap;html=1;" vertex="1" parent="1">
          <mxGeometry x="250" y="180" width="120" height="80" as="geometry" />
        </mxCell>
        <mxCell id="IuE0m9xAkgwqCJRRVcRy-5" value="Select payment method" style="ellipse;whiteSpace=wrap;html=1;" vertex="1" parent="1">
          <mxGeometry x="260" y="300" width="120" height="80" as="geometry" />
        </mxCell>
        <mxCell id="IuE0m9xAkgwqCJRRVcRy-6" value="Process payment" style="ellipse;whiteSpace=wrap;html=1;" vertex="1" parent="1">
          <mxGeometry x="250" y="440" width="120" height="80" as="geometry" />
        </mxCell>
        <mxCell id="IuE0m9xAkgwqCJRRVcRy-7" value="Generate receipt" style="ellipse;whiteSpace=wrap;html=1;" vertex="1" parent="1">
          <mxGeometry x="450" y="350" width="120" height="80" as="geometry" />
        </mxCell>
        <mxCell id="IuE0m9xAkgwqCJRRVcRy-8" value="Apply discounts" style="ellipse;whiteSpace=wrap;html=1;" vertex="1" parent="1">
          <mxGeometry x="450" y="220" width="120" height="80" as="geometry" />
        </mxCell>
        <mxCell id="IuE0m9xAkgwqCJRRVcRy-9" value="Calculate total amount" style="ellipse;whiteSpace=wrap;html=1;" vertex="1" parent="1">
          <mxGeometry x="450" y="100" width="120" height="80" as="geometry" />
        </mxCell>
        <mxCell id="IuE0m9xAkgwqCJRRVcRy-10" value="Update inventory" style="ellipse;whiteSpace=wrap;html=1;" vertex="1" parent="1">
          <mxGeometry x="460" y="460" width="120" height="80" as="geometry" />
        </mxCell>
        <mxCell id="IuE0m9xAkgwqCJRRVcRy-17" style="edgeStyle=none;rounded=0;orthogonalLoop=1;jettySize=auto;html=1;exitX=0;exitY=0.3333333333333333;exitDx=0;exitDy=0;exitPerimeter=0;entryX=1;entryY=1;entryDx=0;entryDy=0;endArrow=none;endFill=0;" edge="1" parent="1" source="IuE0m9xAkgwqCJRRVcRy-2" target="IuE0m9xAkgwqCJRRVcRy-8">
          <mxGeometry relative="1" as="geometry" />
        </mxCell>
        <mxCell id="IuE0m9xAkgwqCJRRVcRy-19" style="edgeStyle=none;rounded=0;orthogonalLoop=1;jettySize=auto;html=1;exitX=0;exitY=0.3333333333333333;exitDx=0;exitDy=0;exitPerimeter=0;entryX=0.988;entryY=0.288;entryDx=0;entryDy=0;entryPerimeter=0;endArrow=none;endFill=0;" edge="1" parent="1" source="IuE0m9xAkgwqCJRRVcRy-2" target="IuE0m9xAkgwqCJRRVcRy-10">
          <mxGeometry relative="1" as="geometry" />
        </mxCell>
        <mxCell id="IuE0m9xAkgwqCJRRVcRy-21" value="Sales Management" style="text;html=1;align=center;verticalAlign=middle;whiteSpace=wrap;rounded=0;" vertex="1" parent="1">
          <mxGeometry x="360" y="40" width="130" height="30" as="geometry" />
        </mxCell>
      </root>
    </mxGraphModel>
  </diagram>
</mxfile>
